<svg width="256" height="256" viewBox="0 0 256 256" fill="none" xmlns="http://www.w3.org/2000/svg">
<rect width="256" height="256" fill="#00FF00"/>
<path d="M129.097 174C187.608 174 209.629 127.303 209.629 127.303C195.699 97.7551 157.13 80.6061 129.097 80.6061C70.5941 80.6061 48.5661 127.303 48.5661 127.303C48.5661 127.303 70.5941 174 129.097 174Z" fill="white"/>
<path d="M129.097 174C187.608 174 209.629 127.303 209.629 127.303C195.699 97.7551 157.13 80.6061 129.097 80.6061C70.5941 80.6061 48.5661 127.303 48.5661 127.303C48.5661 127.303 70.5941 174 129.097 174Z" stroke="black" stroke-width="7.00403" stroke-miterlimit="10" stroke-linecap="round"/>
<path d="M102.333 139.449C100.647 135.744 99.7153 131.635 99.7153 127.3C99.7153 111.075 112.873 97.9168 129.099 97.9168C145.325 97.9168 158.483 111.075 158.483 127.3C158.483 143.534 145.325 156.692 129.099 156.692C127.988 156.692 126.901 156.63 125.821 156.505" stroke="black" stroke-width="7.00403" stroke-miterlimit="10" stroke-linecap="round"/>
<path d="M148.823 115.528C148.823 123.304 142.524 129.603 134.749 129.603C126.974 129.603 120.667 123.304 120.667 115.528C120.667 107.753 126.974 101.454 134.749 101.454C142.524 101.454 148.823 107.753 148.823 115.528Z" stroke="black" stroke-width="3.50201" stroke-miterlimit="10" stroke-linecap="round"/>
</svg>
